<svg width="29" height="29" viewBox="0 0 29 29" fill="none" xmlns="http://www.w3.org/2000/svg">
<g clip-path="url(#clip0_10_87)">
<path fill-rule="evenodd" clip-rule="evenodd" d="M0 4.9375C0 4.72201 0.0856024 4.51535 0.237976 4.36298C0.390349 4.2106 0.597012 4.125 0.8125 4.125H3.25C3.43124 4.12505 3.60726 4.18569 3.75006 4.29729C3.89287 4.40889 3.99427 4.56502 4.03813 4.74087L4.69625 7.375H23.5625C23.6827 7.37507 23.8013 7.4018 23.9099 7.45325C24.0185 7.5047 24.1143 7.57959 24.1905 7.67254C24.2666 7.76548 24.3212 7.87416 24.3503 7.99075C24.3794 8.10733 24.3823 8.22892 24.3587 8.34675L22.7337 16.4717C22.6982 16.6489 22.6046 16.8092 22.4677 16.9272C22.3309 17.0452 22.1586 17.1143 21.9781 17.1234L6.708 17.8904L7.17438 20.375H21.125C21.3405 20.375 21.5472 20.4606 21.6995 20.613C21.8519 20.7653 21.9375 20.972 21.9375 21.1875C21.9375 21.403 21.8519 21.6097 21.6995 21.762C21.5472 21.9144 21.3405 22 21.125 22H6.5C6.31058 21.9998 6.12717 21.9335 5.98148 21.8124C5.83579 21.6913 5.73698 21.5232 5.70213 21.337L3.26625 8.36138L2.61625 5.75H0.8125C0.597012 5.75 0.390349 5.6644 0.237976 5.51202C0.0856024 5.35965 0 5.15299 0 4.9375ZM5.04075 9L6.40575 16.2784L21.2648 15.5325L22.5713 9H5.04075ZM8.125 22C7.26305 22 6.4364 22.3424 5.8269 22.9519C5.21741 23.5614 4.875 24.388 4.875 25.25C4.875 26.112 5.21741 26.9386 5.8269 27.5481C6.4364 28.1576 7.26305 28.5 8.125 28.5C8.98695 28.5 9.8136 28.1576 10.4231 27.5481C11.0326 26.9386 11.375 26.112 11.375 25.25C11.375 24.388 11.0326 23.5614 10.4231 22.9519C9.8136 22.3424 8.98695 22 8.125 22ZM19.5 22C18.638 22 17.8114 22.3424 17.2019 22.9519C16.5924 23.5614 16.25 24.388 16.25 25.25C16.25 26.112 16.5924 26.9386 17.2019 27.5481C17.8114 28.1576 18.638 28.5 19.5 28.5C20.362 28.5 21.1886 28.1576 21.7981 27.5481C22.4076 26.9386 22.75 26.112 22.75 25.25C22.75 24.388 22.4076 23.5614 21.7981 22.9519C21.1886 22.3424 20.362 22 19.5 22ZM8.125 23.625C7.69402 23.625 7.2807 23.7962 6.97595 24.101C6.67121 24.4057 6.5 24.819 6.5 25.25C6.5 25.681 6.67121 26.0943 6.97595 26.399C7.2807 26.7038 7.69402 26.875 8.125 26.875C8.55598 26.875 8.9693 26.7038 9.27405 26.399C9.57879 26.0943 9.75 25.681 9.75 25.25C9.75 24.819 9.57879 24.4057 9.27405 24.101C8.9693 23.7962 8.55598 23.625 8.125 23.625ZM19.5 23.625C19.069 23.625 18.6557 23.7962 18.351 24.101C18.0462 24.4057 17.875 24.819 17.875 25.25C17.875 25.681 18.0462 26.0943 18.351 26.399C18.6557 26.7038 19.069 26.875 19.5 26.875C19.931 26.875 20.3443 26.7038 20.649 26.399C20.9538 26.0943 21.125 25.681 21.125 25.25C21.125 24.819 20.9538 24.4057 20.649 24.101C20.3443 23.7962 19.931 23.625 19.5 23.625Z" fill="#272727"/>
</g>
<circle cx="23.5" cy="6" r="5.5" fill="#4A1D1F"/>
<path d="M24.4033 9.5H23.2217V3.79199L21.4785 4.3877V3.38672L24.252 2.36621H24.4033V9.5Z" fill="white"/>
<defs>
<clipPath id="clip0_10_87">
<rect width="26" height="26" fill="white" transform="translate(0 2.5)"/>
</clipPath>
</defs>
</svg>
