<svg width="34" height="35" viewBox="0 0 34 35" fill="none" xmlns="http://www.w3.org/2000/svg">
<path fill-rule="evenodd" clip-rule="evenodd" d="M27.625 30.25C27.625 30.25 29.75 30.25 29.75 28.125C29.75 26 27.625 19.625 17 19.625C6.375 19.625 4.25 26 4.25 28.125C4.25 30.25 6.375 30.25 6.375 30.25H27.625ZM6.38563 28.244V28.2397V28.244ZM6.42175 28.125H27.5782C27.5882 28.1238 27.5981 28.1224 27.608 28.1208L27.625 28.1165C27.6229 27.5938 27.2978 26.0212 25.857 24.5805C24.4715 23.195 21.8641 21.75 17 21.75C12.1337 21.75 9.5285 23.195 8.143 24.5805C6.70225 26.0212 6.37925 27.5938 6.375 28.1165C6.39055 28.1195 6.40614 28.1223 6.42175 28.125ZM27.6165 28.244V28.2397V28.244ZM17 15.375C18.1272 15.375 19.2082 14.9272 20.0052 14.1302C20.8022 13.3332 21.25 12.2522 21.25 11.125C21.25 9.99783 20.8022 8.91683 20.0052 8.1198C19.2082 7.32277 18.1272 6.875 17 6.875C15.8728 6.875 14.7918 7.32277 13.9948 8.1198C13.1978 8.91683 12.75 9.99783 12.75 11.125C12.75 12.2522 13.1978 13.3332 13.9948 14.1302C14.7918 14.9272 15.8728 15.375 17 15.375ZM23.375 11.125C23.375 12.8158 22.7034 14.4373 21.5078 15.6328C20.3123 16.8284 18.6908 17.5 17 17.5C15.3092 17.5 13.6877 16.8284 12.4922 15.6328C11.2966 14.4373 10.625 12.8158 10.625 11.125C10.625 9.43425 11.2966 7.81274 12.4922 6.61719C13.6877 5.42165 15.3092 4.75 17 4.75C18.6908 4.75 20.3123 5.42165 21.5078 6.61719C22.7034 7.81274 23.375 9.43425 23.375 11.125Z" fill="#272727"/>
</svg>
